<?xml version="1.0" encoding="utf-8"?>
<!-- Generator: Adobe Illustrator 18.1.1, SVG Export Plug-In . SVG Version: 6.00 Build 0)  -->
<!DOCTYPE svg PUBLIC "-//W3C//DTD SVG 1.1//EN" "http://www.w3.org/Graphics/SVG/1.1/DTD/svg11.dtd">
<svg version="1.1" id="Layer_1" xmlns="http://www.w3.org/2000/svg" xmlns:xlink="http://www.w3.org/1999/xlink" x="0px" y="0px"
	 viewBox="0 0 1024 768" enable-background="new 0 0 1024 768" xml:space="preserve">
<path d="M627.7,234C627.7,234,627.7,234,627.7,234c-0.1,0-0.1-0.2-0.1-0.2c-5.5-41.4-75.2-75-116.7-75c-41.4,0-38.8,33.6-33.3,75
	c0.1,0.9,0.3,1.7,0.5,2.6c14.2,98.3-98.3,196.6-84.2,294.9c0.1,0.9,0.2,1.7,0.3,2.6c5.5,41.4,75.2,75,116.7,75
	c41.2,0,38.7-33.8,33.4-74.8c0,0,0,0,0.1,0C527.5,434,644.2,334,627.7,234z"/>
</svg>
